# xmcd
#
# Track frame offsets: 
#        183
#        18033
#        33800
#        53178
#        70463
#        86920
#        105708
#        126778
#        146440
#        170473
#
# Disc length: 2450 seconds
#
# Revision: 3
# Processed by: cddbd v1.5.2PL0 Copyright (c) Steve Scherf et al.
# Submitted via: ExactAudioCopyFreeDBPlugin 1.0
#
DISCID=8109900a
DTITLE=Pierangelo Bertoli - Spunta La Luna Dal Monte E I Grandi Succes
DTITLE=si
DYEAR=1991
DGENRE=Italiana
TTITLE0=Spunta La luna dal monte (Disamparados)
TTITLE1=Acqua limpida
TTITLE2=Sabato
TTITLE3=Canto di vittoria
TTITLE4=Dal vero
TTITLE5=Pescatore
TTITLE6=Certi momenti
TTITLE7=I miei pensieri sono tutti lì
TTITLE8=A muso duro (live)
TTITLE9=Eppure soffia (live)
EXTD=YEAR: 1991
EXTT0=
EXTT1=
EXTT2=
EXTT3=
EXTT4=
EXTT5=
EXTT6=
EXTT7=
EXTT8=
EXTT9=
PLAYORDER=
